<svg width="1080" height="1080" viewBox="0 0 1080 1080" fill="none" xmlns="http://www.w3.org/2000/svg">
<path opacity="0.05" d="M157 581C157 400.347 767.657 257.638 707.853 323.229C434.853 622.646 925 400.347 925 581" fill="#2A94F4"/>
<path d="M550 786C760.973 786 932 769.772 932 749.754C932 729.736 760.973 713.508 550 713.508C339.027 713.508 168 729.736 168 749.754C168 769.772 339.027 786 550 786Z" fill="#F7F7F7"/>
<path opacity="0.3" d="M180 581L312.5 484.716L431.701 581H180Z" fill="#2A94F4"/>
<path opacity="0.3" d="M400.973 581L533.473 484.716L652.674 581H400.973Z" fill="#2A94F4"/>
<path opacity="0.3" d="M270.946 581L403.446 523.216L522.647 581H270.946Z" fill="#2A94F4"/>
<path d="M717.898 435.316C717.898 435.316 776.278 423.774 794.174 403.919C804.96 391.952 822.588 363.677 826.623 357.13C827.138 356.295 827.047 355.225 826.394 354.493C825.976 354.025 825.479 353.5 824.985 353.053C824.485 352.6 823.773 352.085 823.094 351.627C821.97 350.869 820.461 351.078 819.572 352.102C813.003 359.663 786.957 389.366 779.684 393.441C771.34 398.117 720.379 410.277 713.545 416.956C706.71 423.635 706.349 435.005 717.898 435.316Z" fill="#0B4870"/>
<path d="M736.244 523.125L715.303 417.914L674.279 414.571L659.217 526.605L736.244 523.125Z" fill="#FAB9AF"/>
<path d="M713.836 689.177L714.539 701.127C714.682 703.558 714.485 705.997 713.954 708.374L713.118 712.113C712.432 715.183 714.869 718.057 718.009 717.873C726.149 717.395 740.064 716.649 743.65 716.457C744.237 716.426 744.79 715.998 744.808 715.41C744.918 711.904 734.71 710.123 726.956 707.603C721.05 705.683 720.785 695.272 721.163 689.164C721.306 686.856 719.286 685.01 716.995 685.328C715.098 685.59 713.723 687.266 713.836 689.177Z" fill="#FFBE55"/>
<path d="M657.698 688.91L654.333 702.811C654.184 703.425 653.944 704.014 653.621 704.556L650.941 709.053C649.239 711.907 650.781 715.594 654.008 716.388C654.008 716.388 660.008 718.134 666.187 719.793C672.512 721.491 680.23 719.355 680.14 717.716C679.939 714.074 676.703 717.152 670.805 713.662C668.828 712.493 666.788 711.268 664.958 709.988C659.851 706.415 663.588 696.451 666.283 690.807C667.252 688.778 665.973 686.395 663.751 686.048L662.316 685.824C660.209 685.494 658.2 686.836 657.698 688.91Z" fill="#FFBE55"/>
<path d="M690.944 526.653L735.852 520.378C735.852 520.378 742.206 552.965 734.082 613.037C730.272 641.208 722.066 695.091 722.066 695.091C719.37 696.452 716.579 696.911 713.679 696.355C713.679 696.355 711.537 672.905 709.624 647.629C707.789 623.388 706.225 597.465 704.211 589.066C700.097 571.909 690.944 526.653 690.944 526.653Z" fill="#0B4870"/>
<path d="M700.289 526.711C706.326 551.453 718.793 588.262 700.686 624.485C682.579 660.709 663.54 698.38 663.54 698.38C660.834 698.64 658.32 697.792 655.938 696.183C655.938 696.183 658.574 680.068 662.63 661.199C667.269 639.612 673.251 614.191 670.434 601.264C665.155 577.037 658.845 544.733 659.341 528.848C659.837 512.965 697.115 513.701 700.289 526.711Z" fill="#0B4870"/>
<path d="M737.653 520.339L715.303 417.914L674.279 414.571L658.416 524.901C658.118 526.974 659.556 528.893 661.632 529.169C669.291 530.187 687.742 532.18 708.206 531.051C723.482 530.208 731.904 526.765 735.705 524.668C737.246 523.82 738.028 522.058 737.653 520.339Z" fill="#FFBE55"/>
<path d="M659.275 564.782C658.505 562.148 658.022 559.424 657.608 558.412C657.436 557.99 656.633 557.002 656.42 556.699C655.795 555.81 654.687 554.534 654.627 553.448L654.299 548.891C654.177 546.686 653.02 545.073 650.815 545.195C648.427 545.327 647.455 547.424 647.862 549.78L648.038 552.972C648.363 554.858 647.808 556.709 647.348 558.567C646.411 562.347 647.602 566.687 648.883 570.08C649.686 572.209 652.518 573.383 656.373 574.737C658.267 575.403 661.402 575.869 660.09 573.707C658.99 571.895 653.292 569.461 654.628 563.492C654.694 563.199 654.916 562.458 655.284 562.427C656.38 562.334 656.715 564.759 657.306 565.918C658.136 567.545 659.343 568.156 660.048 567.94C660.795 567.712 659.825 566.662 659.275 564.782Z" fill="#FAB9AF"/>
<path d="M687.354 420.306C687.765 427.751 686.818 435.199 684.661 442.336C680.442 456.299 674.407 482.594 680.099 505.154C688.295 537.64 697.237 550.462 687.017 558.702C676.797 566.942 655.683 555.297 654.859 551.073C654.035 546.849 655.712 494.305 659.631 471.365C663.55 448.425 676.233 415.058 676.233 415.058L682.403 415.375C685.072 415.512 687.207 417.639 687.354 420.306Z" fill="#0B4870"/>
<path d="M668.021 417.742C668.021 417.742 635.186 467.373 636.724 494.059C637.651 510.143 645.366 542.558 647.185 550.029C647.417 550.982 648.242 551.67 649.221 551.72C649.848 551.752 650.571 551.767 651.235 551.731C651.909 551.694 652.776 551.55 653.579 551.389C654.908 551.123 655.82 549.902 655.718 548.551C654.959 538.564 652.147 499.158 654.362 491.121C656.903 481.9 684.083 437.109 684.138 427.554C684.194 417.998 676.362 409.748 668.021 417.742Z" fill="#0B4870"/>
<path d="M704.173 417.007C704.173 417.007 712.076 431.879 710.822 453.941C709.568 476.003 707.544 543.086 728.052 552.067C734.546 554.911 748.195 539.977 747.905 534.732C747.616 529.487 741.832 512.193 736.388 496.482C730.945 480.771 716.453 418.007 716.453 418.007L704.173 417.007Z" fill="#0B4870"/>
<path d="M695.881 370.022C686.794 370.523 683.761 377.179 684.247 389.154C684.429 393.639 686.69 397.968 688.469 400.713C689.791 402.752 690.259 405.229 689.7 407.594L688.077 414.457C687.066 420.797 690.231 424.069 694.692 425.074C696.902 425.572 699.482 424.949 701.314 423.617C703.492 422.032 703.505 418.883 702.939 416.249L702.317 414.352C701.479 411.796 702.829 408.917 705.421 408.199C712.333 406.283 712.934 398.934 714.183 387.503C715.485 375.589 704.967 369.521 695.881 370.022Z" fill="#FAB9AF"/>
<path d="M716.751 363.6L711.627 365.472C709.744 366.16 707.702 366.285 705.75 365.834L695.179 363.389C688.877 363.737 678.665 367.87 680.481 376.891L681.997 383.259C682.602 385.803 684.851 387.607 687.465 387.686C687.466 387.686 687.466 387.686 687.466 387.686C687.756 388.562 688.596 389.134 689.517 389.084C690.643 389.022 691.506 388.059 691.444 386.932C691.284 384.031 693.184 381.443 695.979 380.652C699.407 379.681 703.105 379.291 707.043 380.12C714.382 381.664 721.76 376.762 722.071 369.269C722.091 368.795 722.088 368.314 722.061 367.828C721.895 364.823 719.289 362.747 716.751 363.6Z" fill="#0B4870"/>
<path d="M689.268 389.099C689.421 391.873 688.512 394.179 685.841 394.327C683.17 394.474 681.245 390.753 681.092 387.979C680.939 385.204 682.616 384.427 685.287 384.28C687.958 384.132 689.115 386.324 689.268 389.099Z" fill="#FAB9AF"/>
<path d="M821.116 351.218C821.116 351.218 824.349 344.163 825.085 341.618C825.821 339.074 826.722 339.525 826.722 339.525C826.722 339.525 830.068 329.826 830.532 331.428C830.996 333.03 829.579 339.117 829.579 339.117C829.579 339.117 833.001 330.791 833.562 331.887C834.123 332.983 831.057 340.941 831.057 340.941C831.057 340.941 835.306 341.305 834.341 345.114C833.375 348.923 825.163 356.637 825.163 356.637L821.116 351.218Z" fill="#FAB9AF"/>
<path d="M688.835 401.338C688.835 401.338 696.137 410.294 704.512 408.563C704.512 408.563 702.804 409.498 702.453 410.885C702.453 410.886 694.399 410.735 688.835 401.338Z" fill="#E8948B"/>
<path d="M782.114 679.564C782.114 679.564 776.308 696.689 775.115 699.525C774.13 701.867 772.017 703.437 770.014 705C769.373 705.5 768.735 706.63 768.194 707.581C767.759 708.346 767.786 709.249 768.134 710.057C774.213 724.172 790.671 729.076 790.989 727.973C791.564 725.984 788.953 722.19 785.462 720.412C781.948 718.622 779.776 714.961 779.409 711.034C779.118 707.91 779.637 704.764 780.915 701.899L786.803 689.06L782.114 679.564Z" fill="#FA968C"/>
<path d="M806.479 699.256L811.494 716.93C813.027 722.333 812.569 728.118 810.21 733.215C810.209 733.217 810.209 733.217 810.209 733.217C808.884 736.067 810.387 739.424 813.402 740.316C823.144 743.198 842.029 748.658 842.816 747.912C846.83 744.111 835.374 738.844 826.806 733.113C821.027 729.248 817.834 709.932 816.519 695.054L807.818 697.762C807.141 697.993 806.634 698.559 806.479 699.256Z" fill="#FA968C"/>
<path d="M825.209 738.306C829.237 739.39 833.597 739.572 837.598 739.842C838.057 739.873 838.503 740.026 838.881 740.287C842.857 743.03 844.944 745.896 842.815 747.912C841.96 748.722 819.768 742.215 811.111 739.636C809.301 739.097 808.411 737.081 809.207 735.369L810.658 732.25C815.251 734.832 820.106 736.933 825.209 738.306Z" fill="#0B4870"/>
<path d="M803.003 499.635C792.56 501.652 784.264 514.277 786.86 527.719C788.352 535.443 797.131 562.904 806.311 584.489C809.834 592.773 809.115 602.424 803.77 609.668C802.899 610.848 802.154 612.06 801.576 613.282C798.592 619.581 787.802 656.413 781.626 680.934C782.397 684.057 784.501 687.952 786.94 689.215C799.014 668.017 818.421 629.463 821.594 622.764C823.356 619.043 825.269 614.747 826.618 610.738C834.542 598.953 829.402 535.839 826.993 523.366C824.397 509.923 813.447 497.618 803.003 499.635Z" fill="#0B4870"/>
<path d="M802.868 444.606C811.815 444.112 818.552 434.355 817.915 422.813C817.278 411.271 809.509 402.315 800.562 402.809C791.615 403.303 784.878 413.059 785.515 424.601C786.152 436.143 793.921 445.1 802.868 444.606Z" fill="#0B4870"/>
<path d="M797.924 426.091C797.028 414.538 787.127 405.332 775.539 405.308C765.259 405.287 756.758 412.054 753.94 421.203C752.953 424.409 749.986 426.624 746.634 426.759C745.241 426.815 743.819 427.021 742.378 427.4C734.008 429.602 727.829 437.115 727.412 445.76C727.035 453.557 731.048 460.313 737.097 463.96C739.677 465.515 741.247 468.243 741.823 471.2C744.491 484.882 757.638 494.314 771.913 491.95C784.121 489.928 793.393 479.278 793.759 466.91C793.983 459.323 791.009 452.539 786.167 447.648C793.734 443.548 798.637 435.29 797.924 426.091Z" fill="#0B4870"/>
<path d="M800.16 395.966C800.16 395.966 809.592 401.199 808.909 408.988C808.909 408.988 813.587 405.272 814.033 393.336C814.343 385.066 800.16 395.966 800.16 395.966Z" fill="#0B4870"/>
<path d="M819.153 441.99C819.153 441.99 819.181 442.393 819.234 443.148C819.241 443.242 819.248 443.342 819.255 443.448C819.266 443.514 819.278 443.583 819.29 443.655C819.311 443.798 819.333 443.955 819.357 444.124C819.407 444.453 819.51 444.933 819.638 445.363C819.897 446.269 820.331 447.14 821.022 447.863C821.395 448.207 821.819 448.557 822.417 448.847C823.018 449.133 823.755 449.386 824.63 449.562C825.52 449.716 826.526 449.801 827.619 449.808C828.723 449.788 829.898 449.713 831.135 449.545C833.607 449.202 836.29 448.606 839.054 447.787C844.598 446.166 850.442 443.72 856.209 441.069C867.744 435.707 878.845 429.168 886.959 423.998C891.025 421.417 894.367 419.191 896.663 417.582C898.964 415.977 900.232 415.012 900.232 415.012C900.803 414.577 901.619 414.687 902.054 415.259C902.467 415.801 902.389 416.563 901.892 417.011L901.876 417.025C901.876 417.025 897.005 421.396 889.179 427.222C881.334 433.023 870.604 440.407 859.102 446.767C853.349 449.948 847.372 452.802 841.404 454.962C838.418 456.035 835.419 456.919 832.414 457.476C830.911 457.756 829.396 457.938 827.891 458.036C826.373 458.107 824.853 458.071 823.344 457.882C821.827 457.668 820.319 457.279 818.896 456.683C817.467 456.084 816.167 455.204 815.077 454.239C812.905 452.234 811.772 449.925 811.172 448.158C810.861 447.248 810.668 446.495 810.516 445.748C810.45 445.376 810.389 445.031 810.334 444.716C810.308 444.559 810.284 444.409 810.261 444.266C810.25 444.161 810.239 444.062 810.228 443.967C810.146 443.214 810.102 442.813 810.102 442.813L810.101 442.803C809.828 440.308 811.63 438.063 814.125 437.79C816.62 437.517 818.865 439.319 819.138 441.814C819.143 441.867 819.149 441.938 819.153 441.99Z" fill="#FAB9AF"/>
<path d="M815.168 482.538C818.209 471.347 824.262 447.669 823.215 440.097C822.544 435.245 818.267 431.739 813.377 432.009L781.652 433.759C776.392 434.049 772.318 438.457 772.455 443.723C772.694 452.926 778.081 473.605 781.065 484.419L815.168 482.538Z" fill="#2A94F4"/>
<path d="M816.538 698.927C817.019 698.596 817.267 698.014 817.218 697.431C815.26 674.135 812.201 644.47 811.373 638.798C811.278 638.149 811.165 637.511 811.035 636.884C814.514 609.025 811.999 549.685 811.922 539.272C811.822 525.581 802.749 510.628 792.112 510.706C781.476 510.784 770.567 522.399 767.85 535.097C766.057 543.477 777.171 586.931 788.346 618.251C790.698 624.844 791.398 631.877 790.782 638.85C790.356 643.673 790.421 648.613 790.969 652.363C791.784 657.944 799.327 680.44 806.298 699.673C806.5 700.23 806.976 700.653 807.561 700.748C810.648 701.252 813.815 700.8 816.538 698.927Z" fill="#0B4870"/>
<path d="M778.206 498.552C779.593 493.854 779.814 488.896 778.858 484.092C776.638 472.936 772.672 451.91 772.434 442.905C772.307 438.09 776.034 434.069 780.843 433.804L785.547 433.545C787.568 437.602 791.541 440.602 797.444 440.277C803.337 439.952 806.957 436.532 808.523 432.278L812.94 432.034C808.706 442.577 811.18 456.039 819.875 463.495C818.639 469.004 817.65 474.534 816.928 479.012C815.95 485.078 816.872 491.29 819.545 496.823C824.137 506.33 828.21 521.758 827.595 527.995C794.744 539.295 770.743 523.827 770.743 523.827L778.206 498.552Z" fill="#2A94F4"/>
<path d="M802.302 434.81L787.827 434.092L791.512 418.092L800.884 418.731L802.302 434.81Z" fill="#FAB9AF"/>
<path d="M800.884 418.731L791.512 418.092L790.362 423.087C792.575 425.322 795.533 430.249 798.921 430.062C799.995 430.003 800.958 429.646 801.808 429.038L800.884 418.731Z" fill="#FA968C"/>
<path d="M801.625 426.326C798.464 426.499 794.958 425.107 790.023 421.253C787.189 419.04 784.959 415.032 784.805 412.249L783.956 396.86L807.65 395.553C807.65 395.553 809.879 403.626 808.6 411.83C807.641 417.985 804.111 426.19 801.625 426.326Z" fill="#FAB9AF"/>
<path d="M788.662 409.117C788.828 412.12 787.524 414.633 785.751 414.731C783.978 414.829 781.806 411.001 781.64 407.998C781.474 404.995 783.378 403.955 785.151 403.857C786.925 403.759 788.497 406.114 788.662 409.117Z" fill="#FAB9AF"/>
<path d="M781.138 398.885C780.873 394.079 784.555 389.969 789.361 389.706L797.358 389.268C799.645 389.143 801.831 388.422 803.715 387.211C806.449 385.454 810.045 385.791 812.114 388.296C814.35 391.004 815.459 394.734 810.376 398.525C807.849 400.409 803.908 398.694 801.399 399.67C801.241 399.672 801.099 399.654 800.935 399.663L793.886 400.052C791.436 400.187 789.673 402.293 789.737 404.745C789.778 406.296 788.577 407.608 787.017 407.694L786.704 407.711L785.376 404.157L781.733 409.68L781.138 398.885Z" fill="#0B4870"/>
<path d="M900.774 407.661C900.774 407.661 896.977 415.107 898.866 417.02C900.755 418.932 902.373 419.87 905.259 417.226C908.145 414.582 910.845 409.578 911.863 406.254C912.881 402.93 912.235 396.638 911.722 396.011C909.851 393.725 908.639 399.94 907.906 402.921C907.172 405.902 906.047 409.196 904.713 408.437C903.378 407.678 905.213 402.075 903.971 400.7C902.728 399.323 900.774 407.661 900.774 407.661Z" fill="#FAB9AF"/>
<path d="M832.069 503.601C832.069 503.601 823.758 502.711 822.645 505.157C821.532 507.604 821.234 509.45 824.734 511.203C828.234 512.956 833.872 513.693 837.341 513.458C840.81 513.223 846.457 510.375 846.86 509.671C848.328 507.108 842.09 508.193 839.043 508.571C835.996 508.949 832.518 509.074 832.751 507.556C832.984 506.038 838.873 505.753 839.714 504.102C840.555 502.452 832.069 503.601 832.069 503.601Z" fill="#FAB9AF"/>
<path d="M805.869 395.38C805.269 398.94 806.547 400.798 795.325 406.921C784.104 413.044 780.326 410.901 777.053 417.007C777.053 417.007 778.087 407.134 784.267 403.424C790.447 399.714 801.365 396.91 804.475 388.937C804.476 388.937 806.28 392.947 805.869 395.38Z" fill="#0B4870"/>
<path d="M782.468 446.867C782.468 446.867 782.229 447.233 781.78 447.919C781.323 448.632 780.659 449.703 779.828 451.083C778.171 453.843 775.925 457.894 773.61 462.885C772.462 465.383 771.331 468.13 770.325 471.07C769.341 474.013 768.442 477.14 767.894 480.38C767.36 483.611 767.158 486.963 767.65 490.147C768.11 493.342 769.307 496.309 771.262 498.79C772.23 500.039 773.401 501.158 774.734 502.121C775.368 502.638 776.108 503.041 776.803 503.496C777.553 503.881 778.266 504.322 779.059 504.647C782.152 506.066 785.532 506.993 788.894 507.587C792.26 508.194 795.613 508.502 798.812 508.66C802.015 508.809 805.071 508.782 807.896 508.682C810.72 508.57 813.32 508.438 815.622 508.238C817.927 508.084 819.931 507.826 821.587 507.673C824.895 507.281 826.785 507.057 826.785 507.057L826.814 507.054C827.527 506.969 828.174 507.479 828.259 508.192C828.338 508.86 827.89 509.471 827.248 509.615C827.248 509.615 826.778 509.719 825.896 509.914C825.013 510.102 823.722 510.409 822.068 510.744C820.407 511.046 818.401 511.483 816.07 511.845C813.746 512.24 811.109 512.647 808.209 512.959C805.309 513.276 802.148 513.54 798.773 513.632C795.398 513.708 791.809 513.668 788.07 513.25C784.338 512.815 780.443 512.024 776.58 510.531C775.607 510.192 774.665 509.706 773.705 509.272C772.774 508.755 771.813 508.286 770.919 507.66C769.091 506.495 767.366 505.054 765.877 503.369C764.381 501.694 763.106 499.791 762.14 497.765C761.167 495.738 760.534 493.604 760.111 491.491C759.265 487.245 759.366 483.091 759.822 479.229C760.302 475.363 761.15 471.753 762.181 468.437C763.211 465.122 764.368 462.077 765.539 459.325C767.868 453.812 770.283 449.485 772.016 446.473C772.887 444.968 773.62 443.809 774.13 443.012C774.664 442.198 774.95 441.763 774.95 441.763C776.327 439.665 779.144 439.081 781.242 440.458C783.34 441.835 783.924 444.652 782.547 446.75L782.468 446.867Z" fill="#FAB9AF"/>
<path d="M803.689 396.158C803.689 396.158 804.78 407.977 815.442 413.094C815.442 413.094 810.387 404.395 810.375 398.525C810.363 392.655 802.783 392.151 803.689 396.158Z" fill="#0B4870"/>
<path d="M764.548 714.375C763.82 713.625 763.742 712.463 764.37 711.628C764.884 710.946 766.247 709.077 767.271 707.674C767.716 707.065 768.622 707.15 768.985 707.812C773.088 715.304 779.562 720.965 787.633 721.626C790.329 723.239 792.203 727.114 791.748 728.688C791.641 729.057 788.089 729.304 784.234 727.371C767.116 718.788 764.548 714.375 764.548 714.375Z" fill="#0B4870"/>
<path d="M646.131 677.153C646.131 677.153 648.632 695.061 648.839 698.131C649.01 700.666 647.827 703.018 646.739 705.313C646.391 706.048 646.328 707.343 646.272 708.437C646.227 709.315 646.656 710.111 647.33 710.676C659.1 720.559 676.007 717.551 675.796 716.422C675.417 714.387 671.381 712.169 667.462 712.148C663.519 712.127 659.933 709.83 657.843 706.486C656.18 703.826 655.231 700.781 655.088 697.647L654.585 683.532L646.131 677.153Z" fill="#FA968C"/>
<path d="M579.358 691.903L582.437 710.014C583.378 715.551 582.299 721.252 579.404 726.066C579.403 726.068 579.403 726.068 579.403 726.068C577.778 728.758 578.911 732.258 581.811 733.47C591.186 737.386 609.371 744.851 610.234 744.195C614.634 740.849 603.813 734.377 595.913 727.756C590.585 723.29 589.494 703.742 589.792 688.809L580.849 690.563C580.153 690.719 579.587 691.227 579.358 691.903Z" fill="#FA968C"/>
<path d="M593.767 732.745C597.655 734.257 601.969 734.908 605.918 735.609C606.371 735.689 606.797 735.889 607.145 736.19C610.801 739.346 612.567 742.42 610.234 744.195C609.296 744.908 587.936 736.045 579.608 732.547C577.866 731.816 577.199 729.716 578.176 728.099L579.955 725.155C584.242 728.217 588.841 730.83 593.767 732.745Z" fill="#0B4870"/>
<path d="M584.008 507.002C575.582 513.493 573.839 528.499 582.194 539.344C586.995 545.576 607.17 566.172 625.064 581.336C631.932 587.156 635.622 596.103 634.099 604.975C633.851 606.42 633.729 607.838 633.761 609.189C633.923 616.157 640.82 653.912 646.312 678.596C648.404 681.04 652.032 683.576 654.778 683.61C656.048 659.247 656.078 616.085 655.906 608.674C655.81 604.558 655.59 599.861 654.995 595.672C656.784 581.584 623.852 527.497 616.1 517.434C607.743 506.588 592.434 500.51 584.008 507.002Z" fill="#0B4870"/>
<path d="M606.966 414.136C613.971 404.942 613.872 393.086 606.745 387.656C599.618 382.227 588.162 385.278 581.157 394.472C574.152 403.667 574.251 415.522 581.378 420.952C588.505 426.382 599.961 423.33 606.966 414.136Z" fill="#0B4870"/>
<path d="M605.792 389.701C605.792 389.701 614.604 395.921 613.086 403.591C613.086 403.591 618.138 400.401 619.869 388.583C621.068 380.395 605.792 389.701 605.792 389.701Z" fill="#0B4870"/>
<path d="M617.942 433.829C617.942 433.829 618.256 434.081 618.845 434.554C618.984 434.662 619.175 434.827 619.319 434.926C619.467 435.032 619.629 435.149 619.803 435.274C620.131 435.528 620.581 435.822 621.095 436.152C623.124 437.451 626.265 439.055 630.396 439.907C632.453 440.336 634.746 440.576 637.167 440.485C639.585 440.4 642.133 440.003 644.609 439.191C647.076 438.379 649.467 437.117 651.358 435.409C653.256 433.704 654.556 431.558 654.918 429.194C655.307 426.83 654.684 424.209 653.399 421.775C652.14 419.322 650.246 417.093 648.245 415.094C644.165 411.105 639.482 408.099 635.406 405.716C633.344 404.548 631.43 403.498 629.701 402.623C627.972 401.745 626.445 401.012 625.176 400.429C623.916 399.826 622.899 399.408 622.218 399.096C621.533 398.792 621.167 398.63 621.167 398.63L621.141 398.619C620.485 398.328 620.188 397.56 620.479 396.904C620.754 396.282 621.463 395.985 622.094 396.202C622.094 396.202 622.478 396.335 623.197 396.585C623.913 396.843 624.979 397.182 626.311 397.688C627.65 398.174 629.267 398.79 631.111 399.542C632.951 400.3 635.022 401.185 637.239 402.259C641.649 404.447 646.77 407.212 651.661 411.351C654.071 413.45 656.478 415.858 658.361 418.931C659.3 420.46 660.114 422.148 660.651 423.999C661.19 425.845 661.437 427.859 661.273 429.879C661.116 431.898 660.547 433.898 659.662 435.692C658.774 437.49 657.577 439.064 656.253 440.424C653.583 443.14 650.413 445.003 647.227 446.276C640.815 448.817 634.29 449.043 628.915 448.197C623.495 447.382 619.247 445.392 616.484 443.784C615.796 443.38 615.178 443.008 614.619 442.618C614.344 442.432 614.089 442.26 613.856 442.102C613.616 441.94 613.485 441.832 613.322 441.714C612.715 441.264 612.392 441.025 612.392 441.025C610.375 439.53 609.952 436.684 611.447 434.667C612.942 432.65 615.788 432.227 617.805 433.722C617.845 433.752 617.901 433.796 617.942 433.829Z" fill="#FAB9AF"/>
<path d="M611.374 477.387C615.605 466.589 624.176 443.703 623.952 436.062C623.808 431.166 619.934 427.219 615.044 426.96L583.315 425.277C578.054 424.998 573.529 428.941 573.097 434.191C572.342 443.367 575.467 464.506 577.267 475.578L611.374 477.387Z" fill="#2A94F4"/>
<path d="M589.394 692.661C589.908 692.384 590.217 691.832 590.231 691.247C590.797 667.875 590.957 638.054 590.745 632.326C590.721 631.67 590.677 631.024 590.616 630.387C597.079 603.066 600.98 543.801 602.027 533.441C603.404 519.819 595.997 503.975 585.414 502.905C574.831 501.835 562.733 512.206 558.663 524.537C555.977 532.674 562.339 577.074 570.069 609.417C571.696 616.226 571.633 623.293 570.269 630.159C569.325 634.907 568.857 639.826 568.997 643.613C569.205 649.25 574.278 672.428 579.133 692.3C579.274 692.875 579.702 693.347 580.273 693.505C583.288 694.337 586.485 694.229 589.394 692.661Z" fill="#0B4870"/>
<path d="M572.9 489.32C574.786 484.799 575.54 479.894 575.108 475.014C574.104 463.684 572.43 442.353 573.165 433.375C573.558 428.574 577.697 424.979 582.507 425.234L587.212 425.484C588.784 429.735 592.41 433.147 598.314 433.46C604.208 433.773 608.176 430.763 610.191 426.703L614.609 426.937C609.262 436.961 610.27 450.612 618.11 458.963C616.287 464.307 614.707 469.698 613.507 474.072C611.881 479.997 612.127 486.273 614.187 492.061C617.727 502.008 620.112 517.785 618.827 523.919C584.949 531.609 562.756 513.643 562.756 513.643L572.9 489.32Z" fill="#2A94F4"/>
<path d="M603.731 428.55L589.418 426.274L594.807 410.765L604.056 412.411L603.731 428.55Z" fill="#2A94F4"/>
<path d="M603.974 420.042C600.813 419.873 597.478 418.111 592.987 413.747C590.409 411.242 588.623 407.016 588.771 404.233L589.587 388.842L613.284 390.099C613.284 390.099 614.629 398.366 612.473 406.384C610.854 412.398 606.459 420.175 603.974 420.042Z" fill="#FAB9AF"/>
<path d="M592.943 401.535C592.784 404.538 591.217 406.896 589.444 406.802C587.671 406.708 585.924 402.668 586.083 399.665C586.242 396.662 588.247 395.833 590.02 395.927C591.793 396.021 593.102 398.532 592.943 401.535Z" fill="#FAB9AF"/>
<path d="M586.566 390.551C586.821 385.745 590.925 382.056 595.731 382.312L603.729 382.739C606.016 382.861 608.267 382.38 610.271 381.38C613.178 379.929 616.717 380.651 618.504 383.365C620.435 386.298 621.135 390.126 615.672 393.346C612.956 394.947 609.224 392.816 606.624 393.516C606.466 393.501 606.328 393.468 606.164 393.459L599.115 393.085C596.665 392.955 594.685 394.858 594.484 397.304C594.357 398.85 593.022 400.025 591.462 399.942L591.149 399.925L590.212 396.248L585.995 401.345L586.566 390.551Z" fill="#0B4870"/>
<path d="M617.426 394.327C617.426 394.327 619.139 399.592 620.919 399.602C622.699 399.612 623.896 399.292 624.008 396.702C624.12 394.111 623.038 390.504 621.956 388.471C620.874 386.438 617.624 383.796 617.089 383.743C615.142 383.55 617.488 387.027 618.541 388.766C619.595 390.505 620.612 392.574 619.632 392.844C618.652 393.115 616.884 389.632 615.658 389.57C614.433 389.509 617.426 394.327 617.426 394.327Z" fill="#FAB9AF"/>
<path d="M585.926 507.059C585.926 507.059 590.376 499.984 588.667 497.909C586.958 495.835 585.43 494.756 582.318 497.13C579.206 499.505 576.068 504.246 574.755 507.465C573.442 510.684 573.521 517.008 573.976 517.68C575.634 520.125 577.399 514.043 578.397 511.14C579.396 508.237 580.811 505.057 582.073 505.933C583.335 506.809 581.004 512.225 582.118 513.706C583.232 515.187 585.926 507.059 585.926 507.059Z" fill="#FAB9AF"/>
<path d="M611.531 389.735C610.55 393.209 611.62 395.194 599.804 400.071C587.988 404.948 584.464 402.41 580.551 408.127C580.551 408.127 582.644 398.423 589.188 395.401C595.732 392.379 606.889 390.769 610.841 383.178C610.841 383.178 612.202 387.36 611.531 389.735Z" fill="#0B4870"/>
<path d="M584.151 433.438C584.151 433.438 583.927 433.681 583.508 434.137C583.076 434.625 582.443 435.341 581.637 436.252C580.021 438.092 577.794 440.821 575.245 444.172C573.977 445.852 572.654 447.707 571.332 449.708C570.02 451.715 568.664 453.842 567.409 456.104C566.145 458.362 564.967 460.747 563.983 463.218C563.488 464.452 563.041 465.708 562.671 466.975C562.276 468.24 561.966 469.515 561.725 470.792C561.251 473.344 561.139 475.9 561.519 478.297C561.888 480.698 562.787 482.915 564.077 484.86C565.39 486.791 567.062 488.467 568.893 489.832C570.721 491.204 572.68 492.28 574.554 493.165C576.427 494.058 578.245 494.733 579.867 495.304C581.502 495.848 582.951 496.283 584.161 496.593C585.362 496.934 586.327 497.142 586.98 497.305C587.635 497.462 587.984 497.546 587.984 497.546L588.029 497.557C588.727 497.725 589.158 498.427 588.99 499.126C588.835 499.769 588.228 500.184 587.588 500.115C587.588 500.115 587.22 500.076 586.531 500.003C585.842 499.919 584.824 499.85 583.539 499.638C582.25 499.461 580.69 499.183 578.9 498.807C577.12 498.389 575.09 497.932 572.936 497.136C570.779 496.363 568.456 495.376 566.126 493.963C563.805 492.553 561.464 490.699 559.483 488.272C557.541 485.823 556.027 482.81 555.266 479.587C554.486 476.368 554.39 473.02 554.724 469.817C555.051 466.605 555.806 463.512 556.784 460.606C557.751 457.689 558.918 454.935 560.168 452.353C562.646 447.169 565.528 442.717 568.096 439.002C570.666 435.282 573.052 432.378 574.746 430.351C575.594 429.338 576.293 428.562 576.777 428.028C577.282 427.481 577.551 427.19 577.551 427.19C579.254 425.346 582.129 425.232 583.972 426.935C585.816 428.638 585.93 431.513 584.227 433.356L584.151 433.438Z" fill="#FAB9AF"/>
<path d="M609.28 390.272C609.28 390.272 609.089 402.14 619.138 408.377C619.138 408.377 615.051 399.183 615.672 393.346C616.293 387.509 608.811 386.191 609.28 390.272Z" fill="#0B4870"/>
<path d="M646.066 716.145C645.079 715.802 644.487 714.798 644.674 713.77C644.827 712.93 645.205 710.648 645.491 708.934C645.615 708.19 646.463 707.859 647.084 708.288C654.114 713.14 662.441 715.291 669.949 712.258C673.082 712.489 676.497 715.11 676.797 716.72C676.867 717.098 673.804 718.913 669.491 718.917C650.342 718.935 646.066 716.145 646.066 716.145Z" fill="#0B4870"/>
<path d="M896.948 415.441C895.043 415.546 893.413 414.087 893.308 412.182L891.643 381.998C891.538 380.093 892.997 378.463 894.902 378.358L906.841 377.7C908.746 377.595 910.376 379.054 910.481 380.959L912.146 411.143C912.251 413.048 910.792 414.678 908.887 414.783L896.948 415.441Z" fill="#2A94F4"/>
<path d="M910.647 408.609L894.506 409.499L892.933 380.973L909.074 380.083L910.647 408.609Z" fill="#7BE0FF"/>
<path d="M902.729 413.505C903.663 413.505 904.42 412.748 904.42 411.814C904.42 410.88 903.663 410.123 902.729 410.123C901.795 410.123 901.038 410.88 901.038 411.814C901.038 412.748 901.795 413.505 902.729 413.505Z" fill="#7BE0FF"/>
<path opacity="0.6" d="M377.333 500.255C393.718 500.255 407 486.973 407 470.588C407 454.203 393.718 440.921 377.333 440.921C360.948 440.921 347.666 454.203 347.666 470.588C347.666 486.973 360.948 500.255 377.333 500.255Z" fill="#FFBE55"/>
<path d="M329.64 827C362.056 827 388.334 825.508 388.334 823.667C388.334 821.826 362.056 820.334 329.64 820.334C297.224 820.334 270.946 821.826 270.946 823.667C270.946 825.508 297.224 827 329.64 827Z" fill="#F7F7F7"/>
<path d="M566.612 849.667C605.854 849.667 637.666 847.876 637.666 845.667C637.666 843.458 605.854 841.667 566.612 841.667C527.37 841.667 495.558 843.458 495.558 845.667C495.558 847.876 527.37 849.667 566.612 849.667Z" fill="#F7F7F7"/>
<path d="M827.333 823.667C866.545 823.667 898.333 822.921 898.333 822C898.333 821.079 866.545 820.333 827.333 820.333C788.121 820.333 756.333 821.079 756.333 822C756.333 822.921 788.121 823.667 827.333 823.667Z" fill="#F7F7F7"/>
<path d="M526 376.839C533.087 376.839 538.833 371.093 538.833 364.006C538.833 356.919 533.087 351.173 526 351.173C518.913 351.173 513.167 356.919 513.167 364.006C513.167 371.093 518.913 376.839 526 376.839Z" fill="#0B4870"/>
<path d="M511.283 373.923C516.76 373.923 521.2 369.483 521.2 364.006C521.2 358.529 516.76 354.089 511.283 354.089C505.806 354.089 501.366 358.529 501.366 364.006C501.366 369.483 505.806 373.923 511.283 373.923Z" fill="#0B4870"/>
<path d="M520.928 440.215C520.928 440.215 579.308 428.673 597.204 408.818C607.99 396.851 625.618 368.576 629.653 362.029C630.168 361.194 630.077 360.124 629.424 359.392C629.006 358.924 628.509 358.399 628.015 357.952C627.515 357.499 626.803 356.984 626.124 356.526C625 355.768 623.491 355.977 622.602 357.001C616.033 364.562 589.987 394.265 582.714 398.34C574.37 403.016 523.409 415.176 516.575 421.855C509.741 428.533 509.38 439.903 520.928 440.215Z" fill="#FFBE55"/>
<path d="M548.775 523.125L527.834 417.914L486.81 414.571L471.748 526.605L548.775 523.125Z" fill="#FAB9AF"/>
<path d="M526.366 689.177L527.069 701.127C527.212 703.558 527.015 705.997 526.484 708.374L525.648 712.113C524.962 715.183 527.399 718.057 530.539 717.873C538.679 717.395 552.594 716.649 556.18 716.457C556.767 716.426 557.32 715.998 557.338 715.41C557.448 711.904 547.24 710.123 539.486 707.603C533.58 705.683 533.315 695.272 533.693 689.164C533.836 686.856 531.816 685.01 529.525 685.328C527.629 685.59 526.254 687.266 526.366 689.177Z" fill="#FFBE55"/>
<path d="M470.229 688.91L466.864 702.811C466.715 703.425 466.475 704.014 466.152 704.556L463.472 709.053C461.77 711.907 463.312 715.594 466.539 716.388C466.539 716.388 472.539 718.134 478.718 719.793C485.043 721.491 492.761 719.355 492.671 717.716C492.47 714.074 489.234 717.152 483.336 713.662C481.359 712.493 479.319 711.268 477.489 709.988C472.382 706.415 476.12 696.451 478.814 690.807C479.783 688.778 478.504 686.395 476.282 686.048L474.847 685.824C472.74 685.494 470.731 686.836 470.229 688.91Z" fill="#FFBE55"/>
<path d="M503.475 526.653L548.383 520.378C548.383 520.378 554.737 552.965 546.613 613.037C542.803 641.208 534.597 695.091 534.597 695.091C531.901 696.452 529.11 696.911 526.21 696.355C526.21 696.355 524.068 672.905 522.155 647.629C520.32 623.388 518.756 597.465 516.742 589.066C512.628 571.909 503.475 526.653 503.475 526.653Z" fill="#0B4870"/>
<path d="M512.82 526.711C518.857 551.453 531.324 588.262 513.217 624.485C495.11 660.709 476.071 698.38 476.071 698.38C473.365 698.64 470.851 697.792 468.469 696.183C468.469 696.183 471.105 680.068 475.161 661.199C479.8 639.612 485.782 614.191 482.965 601.264C477.686 577.037 471.376 544.733 471.872 528.848C472.368 512.965 509.646 513.701 512.82 526.711Z" fill="#0B4870"/>
<path d="M550.184 520.339L527.834 417.914L486.81 414.571L470.947 524.901C470.649 526.974 472.087 528.893 474.163 529.169C481.822 530.187 500.273 532.18 520.737 531.051C536.013 530.208 544.435 526.765 548.237 524.668C549.777 523.82 550.559 522.058 550.184 520.339Z" fill="#FFBE55"/>
<path d="M366.639 351.566C368.168 353.845 369.95 355.961 370.462 356.927C370.675 357.33 370.92 358.579 371.016 358.936C371.298 359.986 371.568 361.654 372.363 362.395L375.652 365.566C377.267 367.072 377.764 368.994 376.258 370.609C374.627 372.358 372.394 371.761 370.845 369.939L368.507 367.758C367.267 366.3 365.49 365.54 363.769 364.703C360.267 363 357.697 359.305 355.913 356.148C354.793 354.167 355.706 351.241 357.136 347.413C357.838 345.533 359.489 342.826 360.308 345.219C360.995 347.225 359.212 353.159 364.652 355.958C364.919 356.095 365.63 356.399 365.89 356.137C366.664 355.355 365.016 353.544 364.505 352.347C363.788 350.667 364.091 349.349 364.709 348.947C365.363 348.522 365.548 349.94 366.639 351.566Z" fill="#FAB9AF"/>
<path d="M485.14 439.059C485.14 439.059 425.996 432.471 406.493 414.193C394.738 403.176 374.792 376.485 370.221 370.301C369.638 369.512 369.638 368.438 370.227 367.654C370.604 367.152 371.055 366.587 371.509 366.101C371.969 365.608 372.635 365.034 373.273 364.52C374.329 363.67 375.851 363.752 376.823 364.696C384.005 371.677 412.459 399.083 420.049 402.532C428.757 406.489 480.561 414.317 487.933 420.397C495.305 426.477 496.621 437.776 485.14 439.059Z" fill="#FFBE55"/>
<path d="M508.412 370.022C499.325 370.523 496.292 377.179 496.778 389.154C496.96 393.639 499.221 397.968 501 400.713C502.322 402.752 502.79 405.229 502.231 407.594L500.608 414.457C499.597 420.797 502.762 424.069 507.223 425.074C509.433 425.572 512.013 424.949 513.845 423.617C516.023 422.032 516.036 418.883 515.47 416.249L514.848 414.352C514.01 411.796 515.36 408.917 517.952 408.199C524.864 406.283 525.465 398.934 526.714 387.503C528.016 375.589 517.498 369.521 508.412 370.022Z" fill="#FAB9AF"/>
<path d="M529.282 363.6L524.158 365.472C522.275 366.16 520.233 366.285 518.28 365.834L507.709 363.389C501.407 363.737 491.195 367.87 493.011 376.891L494.527 383.259C495.132 385.803 497.381 387.607 499.995 387.686C499.996 387.686 499.996 387.686 499.996 387.686C500.286 388.562 501.126 389.134 502.047 389.084C503.173 389.022 504.036 388.059 503.974 386.932C503.814 384.031 505.714 381.443 508.509 380.652C511.937 379.681 515.635 379.291 519.573 380.12C526.912 381.664 534.29 376.762 534.601 369.269C534.621 368.795 534.618 368.314 534.591 367.828C534.426 364.823 531.82 362.747 529.282 363.6Z" fill="#0B4870"/>
<path d="M501.799 389.099C501.952 391.873 501.043 394.179 498.372 394.327C495.701 394.474 493.776 390.753 493.623 387.979C493.47 385.204 495.147 384.427 497.818 384.28C500.489 384.132 501.646 386.324 501.799 389.099Z" fill="#FAB9AF"/>
<path d="M623.301 358.448C623.301 358.448 626.534 351.393 627.27 348.848C628.006 346.304 628.907 346.755 628.907 346.755C628.907 346.755 632.253 337.056 632.717 338.658C633.181 340.26 631.764 346.347 631.764 346.347C631.764 346.347 635.186 338.021 635.747 339.117C636.308 340.213 633.242 348.171 633.242 348.171C633.242 348.171 637.491 348.535 636.526 352.344C635.56 356.153 627.348 363.867 627.348 363.867L623.301 358.448Z" fill="#FAB9AF"/>
<path d="M501.366 401.338C501.366 401.338 508.668 410.294 517.043 408.563C517.043 408.563 515.335 409.498 514.984 410.885C514.984 410.886 506.93 410.735 501.366 401.338Z" fill="#E8948B"/>
</svg>
